<svg xmlns="http://www.w3.org/2000/svg" x="0px" y="0px" width="64" height="64" viewBox="0,0,256,256"
style="fill:#000000;">
<defs><radialGradient cx="32" cy="32" r="33.002" gradientUnits="userSpaceOnUse" id="color-1_118955_gr1"><stop offset="0" stop-color="#ffffff"></stop><stop offset="0" stop-color="#ffffff"></stop><stop offset="0.011" stop-color="#ffffff"></stop><stop offset="0.362" stop-color="#ffffff"></stop><stop offset="0.699" stop-color="#ffffff"></stop><stop offset="1" stop-color="#ffffff"></stop></radialGradient><linearGradient x1="33" y1="58" x2="33" y2="6" gradientUnits="userSpaceOnUse" id="color-2_118955_gr2"><stop offset="0" stop-color="#41bfec"></stop><stop offset="0.232" stop-color="#4cc5ef"></stop><stop offset="0.644" stop-color="#6bd4f6"></stop><stop offset="1" stop-color="#8ae4fd"></stop></linearGradient><linearGradient x1="38.879" y1="20.121" x2="46.454" y2="12.546" gradientUnits="userSpaceOnUse" id="color-3_118955_gr3"><stop offset="0" stop-color="#c6effd"></stop><stop offset="0.375" stop-color="#b7ecfd"></stop><stop offset="1" stop-color="#95e6fd"></stop></linearGradient><linearGradient x1="45.5" y1="24.083" x2="45.5" y2="18.083" gradientUnits="userSpaceOnUse" id="color-4_118955_gr4"><stop offset="0" stop-color="#42c6ee"></stop><stop offset="0.48" stop-color="#3bc3ed"></stop><stop offset="1" stop-color="#2ebeea"></stop></linearGradient></defs><g fill="none" fill-rule="nonzero" stroke="none" stroke-width="1" stroke-linecap="butt" stroke-linejoin="miter" stroke-miterlimit="10" stroke-dasharray="" stroke-dashoffset="0" font-family="none" font-weight="none" font-size="none" text-anchor="none" style="mix-blend-mode: normal"><g transform="scale(4,4)"><path d="M55.454,45.668c0.5,0.898 1.504,1.337 2.532,1.332c1.75,-0.008 3.153,1.483 3.002,3.262c-0.133,1.576 -1.554,2.738 -3.136,2.738h-9.852v1h-22h-8h-11c-1.71,0 -3.086,-1.431 -2.996,-3.161c0.085,-1.623 1.541,-2.839 3.166,-2.839h0.83c1.215,0 2.176,-1.083 1.973,-2.336c-0.16,-0.983 -1.084,-1.664 -2.08,-1.664h-4.893c-1.71,0 -3.086,-1.431 -2.996,-3.161c0.085,-1.623 1.541,-2.839 3.166,-2.839h6.33c1.381,0 2.5,-1.119 2.5,-2.5v0c0,-1.381 -1.119,-2.5 -2.5,-2.5v0c-1.381,0 -2.5,-1.119 -2.5,-2.5v0c0,-1.381 1.119,-2.5 2.5,-2.5h8.5v-7h-7.5c-1.995,0 -3.601,-1.67 -3.495,-3.688c0.099,-1.893 1.798,-3.312 3.693,-3.312h7.302v-4h24h6h8.5c1.995,0 3.601,1.67 3.495,3.688c-0.099,1.893 -1.798,3.312 -3.693,3.312h-2.802c-1.995,0 -3.601,1.67 -3.495,3.688c0.099,1.893 1.798,3.312 3.693,3.312h2.302c1.777,0 3.194,1.546 2.978,3.366c-0.179,1.509 -1.546,2.572 -3.064,2.635c-1.197,0.05 -2.122,1.153 -1.874,2.406c0.188,0.948 1.083,1.593 2.049,1.593h4.411c1.995,0 3.601,1.67 3.495,3.688c-0.099,1.893 -1.798,3.312 -3.693,3.312h-2.302c-2.192,0 -3.834,2.35 -2.546,4.668zM2.5,33v0c1.381,0 2.5,-1.119 2.5,-2.5v0c0,-1.381 -1.119,-2.5 -2.5,-2.5v0c-1.381,0 -2.5,1.119 -2.5,2.5v0c0,1.381 1.119,2.5 2.5,2.5z" fill="url(#color-1_118955_gr1)"></path><path d="M50,58h-34c-1.657,0 -3,-1.343 -3,-3v-46c0,-1.657 1.343,-3 3,-3h20.757c0.796,0 1.559,0.316 2.121,0.879l13.243,13.243c0.563,0.562 0.879,1.325 0.879,2.121v32.757c0,1.657 -1.343,3 -3,3z" fill="url(#color-2_118955_gr2)"></path><path d="M52.121,20.122l-13.243,-13.243c-0.255,-0.255 -0.556,-0.452 -0.878,-0.6v11.721c0,1.657 1.343,3 3,3h11.721c-0.147,-0.322 -0.344,-0.623 -0.6,-0.878z" fill="url(#color-3_118955_gr3)"></path><path d="M41,21c-1.657,0 -3,-1.343 -3,-3v3c0,1.657 1.343,3 3,3h12v-1.757c0,-0.434 -0.102,-0.855 -0.279,-1.243z" fill="url(#color-4_118955_gr4)"></path><path d="M32,22h-11c-1.105,0 -2,-0.895 -2,-2v0c0,-1.105 0.895,-2 2,-2h11c1.105,0 2,0.895 2,2v0c0,1.105 -0.895,2 -2,2zM38,49h-17c-1.105,0 -2,-0.895 -2,-2v0c0,-1.105 0.895,-2 2,-2h17c1.105,0 2,0.895 2,2v0c0,1.105 -0.895,2 -2,2zM37,37h9c1.105,0 2,0.895 2,2v0c0,1.105 -0.895,2 -2,2h-9c-1.105,0 -2,-0.895 -2,-2v0c0,-1.105 0.895,-2 2,-2zM21,37h9c1.105,0 2,0.895 2,2v0c0,1.105 -0.895,2 -2,2h-9c-1.105,0 -2,-0.895 -2,-2v0c0,-1.105 0.895,-2 2,-2zM21,29h16c1.105,0 2,0.895 2,2v0c0,1.105 -0.895,2 -2,2h-16c-1.105,0 -2,-0.895 -2,-2v0c0,-1.105 0.895,-2 2,-2zM44,29h2c1.105,0 2,0.895 2,2v0c0,1.105 -0.895,2 -2,2h-2c-1.105,0 -2,-0.895 -2,-2v0c0,-1.105 0.895,-2 2,-2z" fill="#f1fcff"></path></g></g>
</svg>